# xmcd
#
# Track frame offsets: 
#        182
#        13700
#        40615
#        68895
#        93315
#        117345
#        126460
#        139877
#        170007
#        198972
#        232360
#
# Disc length: 3393 seconds
#
# Revision: 5
# Processed by: cddbd v1.5.2PL0 Copyright (c) Steve Scherf et al.
# Submitted via: ExactAudioCopyFreeDBPlugin 1.0
#
DISCID=a00d3f0b
DTITLE=Dave Brubeck - Take Five, The Best Of
DYEAR=1994
DGENRE=Jazz
TTITLE0=Take Five
TTITLE1=Travelin' Blues
TTITLE2=Pennies From Heaven
TTITLE3=Three To Get Ready
TTITLE4=The Most Beautiful Girl In The World
TTITLE5=Campton Races
TTITLE6=My Favorite Things
TTITLE7=It's A Raggy Waltz
TTITLE8=Gone With The Wind
TTITLE9=Strange Meadow Lark
TTITLE10=Night And Day
EXTD=YEAR: 1994
EXTT0=
EXTT1=
EXTT2=
EXTT3=
EXTT4=
EXTT5=
EXTT6=
EXTT7=
EXTT8=
EXTT9=
EXTT10=
PLAYORDER=
